<?xml version="1.0" standalone="no"?>
<!DOCTYPE svg PUBLIC "-//W3C//DTD SVG 20010904//EN"
 "http://www.w3.org/TR/2001/REC-SVG-20010904/DTD/svg10.dtd">
<svg version="1.0" xmlns="http://www.w3.org/2000/svg"
 width="150.000000pt" height="150.000000pt" viewBox="0 0 150.000000 150.000000"
 preserveAspectRatio="xMidYMid meet">
<metadata>
Created by potrace 1.14, written by Peter Selinger 2001-2017
</metadata>
<g transform="translate(0.000000,150.000000) scale(0.100000,-0.100000)"
fill="#000000" stroke="none">
<path d="M1205 1394 c-64 -11 -133 -21 -192 -29 -25 -3 -95 -15 -128 -21 -10
-2 -37 -6 -60 -9 -22 -4 -51 -8 -65 -10 -14 -3 -101 -16 -195 -30 -191 -29
-230 -35 -254 -40 -9 -1 -52 -8 -96 -15 -170 -24 -168 -23 -180 -217 -3 -59
-8 -119 -10 -133 -6 -40 -19 -239 -19 -301 -1 -67 20 -99 66 -99 16 0 70 12
121 26 583 163 547 151 547 180 0 31 -39 186 -49 197 -4 4 -89 -11 -189 -34
-100 -24 -184 -41 -186 -38 -2 2 -6 62 -7 134 l-4 129 144 28 c80 15 158 30
175 32 17 3 124 23 239 44 l208 39 98 -191 c55 -105 104 -196 109 -202 13 -15
199 35 207 55 6 15 6 14 -123 217 -51 79 -90 148 -88 153 3 5 24 11 46 15 26
4 40 11 40 21 0 17 -55 97 -73 106 -7 3 -43 0 -82 -7z"/>
<path d="M861 1150 c-41 -9 -76 -21 -79 -28 -3 -10 114 -390 124 -401 2 -2 54
10 116 28 100 28 133 44 125 62 -1 3 -38 85 -82 182 -90 201 -69 185 -204 157z"/>
<path d="M1310 234 c0 -77 2 -84 20 -84 18 0 20 7 20 83 0 76 -2 83 -20 84
-19 2 -20 -4 -20 -83z"/>
<path d="M1370 299 c0 -12 7 -19 20 -19 18 0 20 -7 20 -65 0 -58 2 -65 20 -65
18 0 20 7 20 64 0 59 2 65 23 68 12 2 22 10 22 18 0 12 -14 15 -62 16 -55 1
-63 -1 -63 -17z"/>
<path d="M55 260 c-32 -12 -47 -37 -50 -78 -5 -91 94 -132 154 -64 l24 27 -22
3 c-12 2 -27 -1 -34 -6 -40 -31 -77 -13 -77 38 0 38 30 56 63 38 43 -24 71
-14 49 18 -19 29 -68 40 -107 24z"/>
<path d="M238 254 c-84 -45 -52 -160 47 -169 30 -3 65 20 80 51 21 46 6 98
-35 119 -36 19 -57 18 -92 -1z m76 -40 c22 -22 20 -60 -5 -78 -36 -25 -69 -3
-69 46 0 42 45 62 74 32z"/>
<path d="M398 263 c-2 -5 -4 -46 -4 -93 1 -78 3 -85 21 -85 17 0 21 8 25 53
l5 52 30 -47 c34 -57 41 -62 66 -56 16 5 18 15 17 92 -1 83 -2 87 -24 89 -21
2 -23 -3 -26 -51 l-3 -52 -34 53 c-30 47 -63 67 -73 45z"/>
<path d="M596 251 c-27 -30 -17 -63 27 -84 20 -10 37 -25 37 -33 0 -16 -27
-19 -32 -3 -2 6 -16 9 -32 7 l-28 -3 19 -24 c14 -18 30 -24 56 -24 46 0 67 17
67 55 0 25 -6 32 -40 45 -39 16 -55 43 -25 43 8 0 15 -4 15 -9 0 -5 11 -8 25
-8 31 0 32 21 3 41 -30 22 -71 20 -92 -3z"/>
<path d="M737 253 c-3 -10 -4 -52 -3 -93 1 -68 3 -75 21 -75 18 0 20 8 23 93
3 86 1 92 -17 92 -11 0 -22 -8 -24 -17z"/>
<path d="M804 182 c0 -48 4 -90 9 -93 13 -9 88 -1 114 13 32 16 48 71 33 109
-16 38 -42 52 -105 55 l-51 2 0 -86z m100 32 c33 -32 15 -80 -33 -89 -19 -4
-21 1 -21 51 0 47 3 54 19 54 11 0 27 -7 35 -16z"/>
<path d="M989 261 c-5 -28 -4 -149 2 -161 7 -15 15 -16 92 -11 9 1 17 9 17 19
0 15 -6 17 -35 14 -30 -4 -35 -1 -35 17 0 17 6 21 30 21 23 0 30 5 30 19 0 16
-5 18 -30 15 -25 -4 -30 -2 -30 15 0 17 6 21 36 21 28 0 35 3 32 18 -3 13 -14
17 -56 18 -28 1 -53 -1 -53 -5z"/>
<path d="M1120 177 c0 -86 1 -93 20 -93 21 0 23 6 20 44 -2 32 13 27 34 -12
12 -22 25 -34 37 -33 22 1 24 24 4 50 -12 16 -11 21 6 38 22 22 24 48 5 74
-10 14 -29 19 -70 22 l-56 3 0 -93z m88 31 c-2 -17 -9 -22 -23 -20 -26 5 -29
8 -22 27 4 8 16 15 27 15 16 0 21 -5 18 -22z"/>
</g>
</svg>
